<svg width="319" height="51" viewBox="0 0 319 51" fill="none" xmlns="http://www.w3.org/2000/svg">
<g clip-path="url(#clip0_3606_28)">
<path d="M117.6 10.7002V39.7002H108.5V25.3002L104 39.7002H96.1996L91.6996 25.2002V39.7002H82.5996V10.7002H93.6996L100.1 28.1002L106.3 10.7002H117.6Z" fill="white"/>
<path d="M70.6996 10.6001V29.3001C70.6996 29.5001 70.6996 29.7001 70.6996 29.8001C70.6996 30.0001 70.6996 30.2001 70.5996 30.4001C70.1996 32.9001 68.8996 35.0001 67.0996 36.6001V39.7001C67.7996 39.8001 68.5996 39.9001 69.3996 39.9001C72.6996 39.9001 75.1996 39.0001 76.9996 37.2001C78.7996 35.4001 79.6996 32.8001 79.6996 29.3001V10.6001H70.6996Z" fill="white"/>
<path d="M124.1 10.6001V29.3001C124.1 29.5001 124.1 29.7001 124.1 29.8001C124.1 30.0001 124.1 30.2001 124 30.4001C123.6 32.9001 122.3 35.0001 120.5 36.6001V39.7001C121.2 39.8001 122 39.9001 122.8 39.9001C126.1 39.9001 128.6 39.0001 130.4 37.2001C132.2 35.4001 133.1 32.8001 133.1 29.3001V10.6001H124.1Z" fill="white"/>
<path d="M174.3 10.9001V39.6001H168.6V21.0001L160.9 39.6001H156.5L148.8 21.0001V39.6001H143.1V10.9001H149.6L158.7 32.2001L167.8 10.9001H174.3Z" fill="white"/>
<path d="M185.7 15.6001V22.8001H195.4V27.4001H185.7V35.0001H196.6V39.7001H180V10.9001H196.6V15.6001H185.7Z" fill="white"/>
<path d="M219.799 12.7001C222.099 13.9001 223.899 15.6001 225.099 17.7001C226.299 19.9001 226.999 22.4001 226.999 25.3001C226.999 28.2001 226.399 30.7001 225.099 32.8001C223.899 35.0001 222.099 36.6001 219.799 37.8001C217.499 39.0001 214.899 39.6001 211.899 39.6001H201.899V10.9001H211.899C214.899 10.9001 217.499 11.5001 219.799 12.7001ZM218.599 32.3001C220.199 30.7001 221.099 28.3001 221.099 25.4001C221.099 22.4001 220.299 20.1001 218.599 18.4001C216.999 16.7001 214.599 15.9001 211.599 15.9001H207.499V34.8001H211.599C214.699 34.7001 216.999 33.9001 218.599 32.3001Z" fill="white"/>
<path d="M237 10.9001V39.6001H231.3V10.9001H237Z" fill="white"/>
<path d="M243.199 17.7001C244.499 15.5001 246.199 13.7001 248.399 12.5001C250.599 11.3001 253.099 10.6001 255.799 10.6001C258.999 10.6001 261.799 11.4001 264.199 13.1001C266.599 14.7001 268.299 17.0001 269.299 19.9001H262.699C261.999 18.5001 261.099 17.5001 259.899 16.8001C258.699 16.1001 257.299 15.8001 255.799 15.8001C254.099 15.8001 252.599 16.2001 251.299 17.0001C249.999 17.8001 248.999 18.9001 248.299 20.3001C247.599 21.7001 247.199 23.4001 247.199 25.3001C247.199 27.2001 247.599 28.9001 248.299 30.3001C248.999 31.7001 249.999 32.8001 251.299 33.6001C252.599 34.4001 254.099 34.8001 255.799 34.8001C257.399 34.8001 258.699 34.5001 259.899 33.8001C261.099 33.1001 261.999 32.1001 262.699 30.7001H269.299C268.299 33.6001 266.699 35.9001 264.299 37.5001C261.899 39.1001 259.099 39.9001 255.899 39.9001C253.199 39.9001 250.699 39.3001 248.499 38.0001C246.299 36.7001 244.599 35.0001 243.299 32.8001C241.999 30.6001 241.399 28.1001 241.399 25.2001C241.399 22.3001 241.899 19.9001 243.199 17.7001Z" fill="white"/>
<path d="M291.8 34.2H280.4L278.5 39.7H272.5L282.8 11H289.5L299.8 39.7H293.7L291.8 34.2ZM290.3 29.6L286.2 17.6L282.1 29.6H290.3Z" fill="white"/>
<path d="M309.4 35.1001H318.8V39.7001H303.6V10.9001H309.3V35.1001H309.4Z" fill="white"/>
<path d="M0.0345688 31.7346L50.4346 31.7346L50.4346 18.7346L0.0345688 18.7346L0.0345688 31.7346Z" fill="#3AAA35"/>
<path d="M0 31.7V18.8C10.3 18.8 18.8 10.4 18.8 0H31.7C31.7 17.5 17.5 31.7 0 31.7Z" fill="white"/>
<path d="M50.4002 18.7V31.6C40.1002 31.6 31.6002 40 31.6002 50.4H18.7002C18.7002 33 33.0002 18.7 50.4002 18.7Z" fill="white"/>
</g>
<defs>
<clipPath id="clip0_3606_28">
<rect width="318.8" height="50.4" fill="white"/>
</clipPath>
</defs>
</svg>
